<svg xmlns="http://www.w3.org/2000/svg" viewBox="0 0 800 450">
  <rect width="800" height="450" fill="#0d1117"/>
  <!-- Top bar -->
  <rect width="800" height="36" fill="#111827"/>
  <circle cx="18" cy="18" r="5" fill="#22c55e"/>
  <text x="30" y="22" fill="#e2e8f0" font-family="monospace" font-size="11" font-weight="bold">CGW AI-SOC™</text>
  <text x="120" y="22" fill="#22c55e" font-family="monospace" font-size="8">● SYSTEM OPERATIONAL</text>
  <text x="490" y="15" fill="#64748b" font-family="monospace" font-size="7.5">Detection Rate</text>
  <text x="575" y="15" fill="#22d3ee" font-family="monospace" font-size="8" font-weight="bold">99.7%</text>
  <text x="610" y="15" fill="#64748b" font-family="monospace" font-size="7.5">MTTR</text>
  <text x="638" y="15" fill="#22d3ee" font-family="monospace" font-size="8" font-weight="bold">&lt;4min</text>
  <text x="672" y="15" fill="#64748b" font-family="monospace" font-size="7.5">Auto-Resolved</text>
  <text x="752" y="15" fill="#22d3ee" font-family="monospace" font-size="8" font-weight="bold">94%</text>
  <text x="490" y="28" fill="#64748b" font-family="monospace" font-size="7.5">Sites</text>
  <text x="516" y="28" fill="#22d3ee" font-family="monospace" font-size="8" font-weight="bold">50+</text>
  <!-- Tab bar -->
  <rect y="36" width="800" height="30" fill="#0f172a"/>
  <rect x="6" y="40" width="110" height="22" rx="4" fill="rgba(34,211,238,0.1)" stroke="#22d3ee" stroke-width="1"/>
  <text x="61" y="55" fill="#22d3ee" font-family="monospace" font-size="8.5" text-anchor="middle">⊞ Overview</text>
  <text x="140" y="55" fill="#475569" font-family="monospace" font-size="8">△ Incidents</text>
  <text x="210" y="55" fill="#475569" font-family="monospace" font-size="8">◎ Threat Intel</text>
  <text x="296" y="55" fill="#475569" font-family="monospace" font-size="8">⬛ CCTV AI</text>
  <text x="370" y="55" fill="#475569" font-family="monospace" font-size="8">🔒 Access Control</text>
  <text x="465" y="55" fill="#475569" font-family="monospace" font-size="8">&gt;_ SOC Ops</text>
  <text x="530" y="55" fill="#475569" font-family="monospace" font-size="8">⊞ AI Models</text>
  <!-- Stat cards -->
  <rect x="10" y="78" width="183" height="74" rx="4" fill="#111827" stroke="rgba(255,255,255,0.06)" stroke-width="1"/>
  <text x="20" y="96" fill="#475569" font-family="monospace" font-size="7" letter-spacing="0.08em">SECURITY POSTURE</text>
  <text x="20" y="126" fill="#22d3ee" font-family="monospace" font-size="32" font-weight="bold">87</text>
  <text x="20" y="144" fill="#374151" font-family="monospace" font-size="7.5">+4 pts vs last month</text>
  <rect x="200" y="78" width="183" height="74" rx="4" fill="#111827" stroke="rgba(255,255,255,0.06)" stroke-width="1"/>
  <text x="210" y="96" fill="#475569" font-family="monospace" font-size="7" letter-spacing="0.08em">EVENTS / SEC</text>
  <text x="210" y="126" fill="#22d3ee" font-family="monospace" font-size="32" font-weight="bold">4.2M</text>
  <text x="210" y="144" fill="#374151" font-family="monospace" font-size="7.5">Apache Kafka ingestion</text>
  <rect x="390" y="78" width="183" height="74" rx="4" fill="#111827" stroke="rgba(255,255,255,0.06)" stroke-width="1"/>
  <text x="400" y="96" fill="#475569" font-family="monospace" font-size="7" letter-spacing="0.08em">ACTIVE INCIDENTS</text>
  <text x="400" y="126" fill="#e2e8f0" font-family="monospace" font-size="32" font-weight="bold">3</text>
  <text x="400" y="144" fill="#374151" font-family="monospace" font-size="7.5">0 Critical · 1 High · 2 Med</text>
  <rect x="580" y="78" width="210" height="74" rx="4" fill="#111827" stroke="rgba(255,255,255,0.06)" stroke-width="1"/>
  <text x="590" y="96" fill="#475569" font-family="monospace" font-size="7" letter-spacing="0.08em">THREATS BLOCKED TODAY</text>
  <text x="590" y="124" fill="#f87171" font-family="monospace" font-size="28" font-weight="bold">2,924</text>
  <text x="590" y="144" fill="#374151" font-family="monospace" font-size="7.5">+12% vs yesterday</text>
  <!-- Global Threat Map -->
  <rect x="10" y="162" width="370" height="168" rx="4" fill="#111827" stroke="rgba(255,255,255,0.06)" stroke-width="1"/>
  <text x="22" y="181" fill="#64748b" font-family="monospace" font-size="7.5" letter-spacing="0.1em">⊕ GLOBAL THREAT MAP</text>
  <ellipse cx="196" cy="255" rx="150" ry="58" fill="none" stroke="rgba(34,211,238,0.12)" stroke-width="1"/>
  <circle cx="100" cy="240" r="6" fill="#ef4444" opacity="0.85"/>
  <circle cx="142" cy="268" r="4" fill="#f59e0b" opacity="0.85"/>
  <circle cx="198" cy="228" r="5" fill="#22d3ee" opacity="0.85"/>
  <circle cx="255" cy="252" r="7" fill="#ef4444" opacity="0.75"/>
  <circle cx="296" cy="244" r="4" fill="#22d3ee" opacity="0.8"/>
  <circle cx="160" cy="283" r="3" fill="#f59e0b" opacity="0.7"/>
  <circle cx="80" cy="260" r="3" fill="#22d3ee" opacity="0.6"/>
  <!-- Incident Tiers -->
  <rect x="390" y="162" width="400" height="168" rx="4" fill="#111827" stroke="rgba(255,255,255,0.06)" stroke-width="1"/>
  <text x="402" y="181" fill="#64748b" font-family="monospace" font-size="7.5" letter-spacing="0.1em">⊙ INCIDENT TIERS</text>
  <rect x="402" y="188" width="52" height="18" rx="2" fill="#7f1d1d"/>
  <text x="428" y="201" fill="#fca5a5" font-family="monospace" font-size="7" text-anchor="middle">TIER 4</text>
  <text x="460" y="201" fill="#94a3b8" font-family="monospace" font-size="8">Critical — War Room Active</text>
  <text x="780" y="201" fill="#ef4444" font-family="monospace" font-size="9" font-weight="bold" text-anchor="end">0</text>
  <rect x="402" y="212" width="52" height="18" rx="2" fill="#78350f"/>
  <text x="428" y="225" fill="#fcd34d" font-family="monospace" font-size="7" text-anchor="middle">TIER 3</text>
  <text x="460" y="225" fill="#94a3b8" font-family="monospace" font-size="8">High — Analyst Assigned</text>
  <text x="780" y="225" fill="#f59e0b" font-family="monospace" font-size="9" font-weight="bold" text-anchor="end">1</text>
  <rect x="402" y="236" width="52" height="18" rx="2" fill="#164e63"/>
  <text x="428" y="249" fill="#67e8f9" font-family="monospace" font-size="7" text-anchor="middle">TIER 2</text>
  <text x="460" y="249" fill="#94a3b8" font-family="monospace" font-size="8">Medium — SOAR Running</text>
  <text x="780" y="249" fill="#22d3ee" font-family="monospace" font-size="9" font-weight="bold" text-anchor="end">2</text>
  <rect x="402" y="260" width="52" height="18" rx="2" fill="#1e3a5f"/>
  <text x="428" y="273" fill="#93c5fd" font-family="monospace" font-size="7" text-anchor="middle">TIER 1</text>
  <text x="460" y="273" fill="#94a3b8" font-family="monospace" font-size="8">Low — Auto-Resolved</text>
  <text x="780" y="273" fill="#22d3ee" font-family="monospace" font-size="9" font-weight="bold" text-anchor="end">14</text>
  <rect x="402" y="284" width="52" height="18" rx="2" fill="#1f2937"/>
  <text x="428" y="297" fill="#6b7280" font-family="monospace" font-size="7" text-anchor="middle">TIER 0</text>
  <text x="460" y="297" fill="#94a3b8" font-family="monospace" font-size="8">Informational — Logged</text>
  <text x="780" y="297" fill="#94a3b8" font-family="monospace" font-size="9" font-weight="bold" text-anchor="end">238</text>
  <!-- Live event feed -->
  <rect x="10" y="340" width="780" height="100" rx="4" fill="#111827" stroke="rgba(255,255,255,0.06)" stroke-width="1"/>
  <text x="22" y="358" fill="#22d3ee" font-family="monospace" font-size="7.5" letter-spacing="0.1em">✦ LIVE EVENT FEED</text>
  <circle cx="22" cy="374" r="4" fill="#ef4444"/>
  <text x="32" y="378" fill="#94a3b8" font-family="monospace" font-size="8">Access denied — Unknown subject — Zone D — PTZ locked</text>
  <text x="752" y="378" fill="#374151" font-family="monospace" font-size="8" text-anchor="end">16:22:32</text>
  <circle cx="22" cy="394" r="4" fill="#22d3ee"/>
  <text x="32" y="398" fill="#94a3b8" font-family="monospace" font-size="8">Phishing email quarantined — 3 recipients protected</text>
  <text x="752" y="398" fill="#374151" font-family="monospace" font-size="8" text-anchor="end">16:22:29</text>
  <circle cx="22" cy="414" r="4" fill="#22c55e"/>
  <text x="32" y="418" fill="#94a3b8" font-family="monospace" font-size="8">Face recognition match: VIP visitor Ahmed — Lobby</text>
  <text x="752" y="418" fill="#374151" font-family="monospace" font-size="8" text-anchor="end">16:22:26</text>
  <circle cx="22" cy="434" r="4" fill="#f59e0b"/>
  <text x="32" y="438" fill="#94a3b8" font-family="monospace" font-size="8">UEBA anomaly: bulk download 4.2GB — user omar.sheikh</text>
  <text x="752" y="438" fill="#374151" font-family="monospace" font-size="8" text-anchor="end">16:22:24</text>
</svg>
