<svg xmlns="http://www.w3.org/2000/svg" viewBox="0 0 800 500">
  <rect width="800" height="500" fill="#0d1117"/>
  <!-- Top bar -->
  <rect width="800" height="36" fill="#111827"/>
  <circle cx="18" cy="18" r="5" fill="#22c55e"/>
  <text x="30" y="22" fill="#e2e8f0" font-family="monospace" font-size="11" font-weight="bold">CGW AI-SOC™</text>
  <text x="120" y="22" fill="#22c55e" font-family="monospace" font-size="8">● SYSTEM OPERATIONAL</text>
  <text x="575" y="22" fill="#64748b" font-family="monospace" font-size="7.5">Detection Rate</text>
  <text x="657" y="22" fill="#22d3ee" font-family="monospace" font-size="8" font-weight="bold">99.7%</text>
  <text x="695" y="22" fill="#64748b" font-family="monospace" font-size="7.5">Sites</text>
  <text x="720" y="22" fill="#22d3ee" font-family="monospace" font-size="8" font-weight="bold">50+</text>
  <!-- Tab bar -->
  <rect y="36" width="800" height="30" fill="#0f172a"/>
  <text x="22" y="55" fill="#475569" font-family="monospace" font-size="8">⊞ Overview</text>
  <text x="106" y="55" fill="#475569" font-family="monospace" font-size="8">△ Incidents</text>
  <text x="180" y="55" fill="#475569" font-family="monospace" font-size="8">◎ Threat Intel</text>
  <rect x="264" y="40" width="84" height="22" rx="4" fill="rgba(34,211,238,0.1)" stroke="#22d3ee" stroke-width="1"/>
  <text x="306" y="55" fill="#22d3ee" font-family="monospace" font-size="8" text-anchor="middle">⬛ CCTV AI</text>
  <text x="364" y="55" fill="#475569" font-family="monospace" font-size="8">🔒 Access Control</text>
  <text x="458" y="55" fill="#475569" font-family="monospace" font-size="8">&gt;_ SOC Ops</text>
  <text x="524" y="55" fill="#475569" font-family="monospace" font-size="8">⊞ AI Models</text>
  <!-- Subheader -->
  <text x="16" y="88" fill="#e2e8f0" font-family="monospace" font-size="12" font-weight="bold">Camera Grid —</text>
  <text x="118" y="88" fill="#22d3ee" font-family="monospace" font-size="12"> 500 cameras online</text>
  <!-- Simulate Alert btn -->
  <rect x="678" y="72" width="108" height="26" rx="5" fill="#22d3ee" />
  <text x="732" y="89" fill="#0d1117" font-family="monospace" font-size="8.5" font-weight="bold" text-anchor="middle">△ Simulate Alert</text>

  <!-- Camera grid row 1 -->
  <!-- Cam 1: Main Entrance -->
  <rect x="10" y="100" width="254" height="175" rx="4" fill="#111827" stroke="rgba(255,255,255,0.08)" stroke-width="1"/>
  <rect x="198" y="107" width="58" height="16" rx="2" fill="rgba(34,211,238,0.15)" stroke="#22d3ee" stroke-width="0.5"/>
  <text x="227" y="119" fill="#22d3ee" font-family="monospace" font-size="7.5" text-anchor="middle">AI OK</text>
  <rect x="18" y="252" width="108" height="16" rx="2" fill="rgba(0,0,0,0.6)"/>
  <text x="22" y="263" fill="#94a3b8" font-family="monospace" font-size="8">Main Entrance</text>
  <!-- detection box cam1 -->
  <rect x="80" y="150" width="34" height="44" rx="1" fill="none" stroke="#22d3ee" stroke-width="1.5"/>
  <text x="85" y="205" fill="#22d3ee" font-family="monospace" font-size="6">3 detected</text>

  <!-- Cam 2: Server Room B -->
  <rect x="272" y="100" width="254" height="175" rx="4" fill="#111827" stroke="rgba(255,255,255,0.08)" stroke-width="1"/>
  <rect x="460" y="107" width="58" height="16" rx="2" fill="rgba(34,211,238,0.08)" stroke="#475569" stroke-width="0.5"/>
  <text x="489" y="119" fill="#64748b" font-family="monospace" font-size="7.5" text-anchor="middle">AI OK</text>
  <rect x="280" y="252" width="108" height="16" rx="2" fill="rgba(0,0,0,0.6)"/>
  <text x="284" y="263" fill="#94a3b8" font-family="monospace" font-size="8">Server Room B</text>
  <text x="380" y="185" fill="#475569" font-family="monospace" font-size="7">no motion</text>

  <!-- Cam 3: Car Park -->
  <rect x="534" y="100" width="256" height="175" rx="4" fill="#111827" stroke="rgba(255,255,255,0.08)" stroke-width="1"/>
  <rect x="722" y="107" width="60" height="16" rx="2" fill="rgba(34,211,238,0.15)" stroke="#22d3ee" stroke-width="0.5"/>
  <text x="752" y="119" fill="#22d3ee" font-family="monospace" font-size="7.5" text-anchor="middle">AI OK</text>
  <text x="542" y="268" fill="#94a3b8" font-family="monospace" font-size="8">Car Park Level 1</text>
  <rect x="650" y="148" width="28" height="38" rx="1" fill="none" stroke="#22d3ee" stroke-width="1.5"/>
  <text x="648" y="200" fill="#22d3ee" font-family="monospace" font-size="6">7 detected</text>

  <!-- Camera grid row 2 -->
  <!-- Cam 4: Executive Floor -->
  <rect x="10" y="282" width="254" height="175" rx="4" fill="#111827" stroke="rgba(255,255,255,0.08)" stroke-width="1"/>
  <rect x="198" y="289" width="58" height="16" rx="2" fill="rgba(34,211,238,0.15)" stroke="#22d3ee" stroke-width="0.5"/>
  <text x="227" y="301" fill="#22d3ee" font-family="monospace" font-size="7.5" text-anchor="middle">AI OK</text>
  <text x="18" y="450" fill="#94a3b8" font-family="monospace" font-size="8">Executive Floor</text>
  <rect x="120" y="362" width="28" height="38" rx="1" fill="none" stroke="#22d3ee" stroke-width="1.5"/>
  <text x="98" y="410" fill="#22d3ee" font-family="monospace" font-size="6">2 detected</text>

  <!-- Cam 5: Loading Bay — ALERT (red border) -->
  <rect x="272" y="282" width="254" height="175" rx="4" fill="#1a0808" stroke="#ef4444" stroke-width="2"/>
  <rect x="452" y="289" width="52" height="16" rx="2" fill="rgba(239,68,68,0.3)" stroke="#ef4444" stroke-width="0.5"/>
  <text x="478" y="301" fill="#f87171" font-family="monospace" font-size="7.5" text-anchor="middle">ALERT</text>
  <text x="280" y="450" fill="#94a3b8" font-family="monospace" font-size="8">Loading Bay</text>
  <rect x="370" y="358" width="26" height="36" rx="1" fill="none" stroke="#22d3ee" stroke-width="1.5"/>
  <rect x="378" y="368" width="22" height="30" rx="1" fill="none" stroke="#ef4444" stroke-width="1"/>
  <text x="350" y="406" fill="#22d3ee" font-family="monospace" font-size="6">1 detected</text>

  <!-- Cam 6: Perimeter North -->
  <rect x="534" y="282" width="256" height="175" rx="4" fill="#111827" stroke="rgba(255,255,255,0.08)" stroke-width="1"/>
  <rect x="722" y="289" width="60" height="16" rx="2" fill="rgba(34,211,238,0.15)" stroke="#22d3ee" stroke-width="0.5"/>
  <text x="752" y="301" fill="#22d3ee" font-family="monospace" font-size="7.5" text-anchor="middle">AI OK</text>
  <text x="542" y="450" fill="#94a3b8" font-family="monospace" font-size="8">Perimeter North</text>
  <text x="600" y="385" fill="#475569" font-family="monospace" font-size="7">no motion</text>

  <!-- Bottom accuracy bar -->
  <rect x="10" y="462" width="254" height="30" rx="3" fill="#0f172a" stroke="rgba(255,255,255,0.05)" stroke-width="1"/>
  <text x="137" y="481" fill="#22d3ee" font-family="monospace" font-size="11" font-weight="bold" text-anchor="middle">99.2%</text>
  <rect x="272" y="462" width="254" height="30" rx="3" fill="#0f172a" stroke="rgba(255,255,255,0.05)" stroke-width="1"/>
  <text x="399" y="481" fill="#22d3ee" font-family="monospace" font-size="11" font-weight="bold" text-anchor="middle">97.8%</text>
  <rect x="534" y="462" width="256" height="30" rx="3" fill="#0f172a" stroke="rgba(255,255,255,0.05)" stroke-width="1"/>
  <text x="662" y="481" fill="#22d3ee" font-family="monospace" font-size="11" font-weight="bold" text-anchor="middle">98.9%</text>
</svg>
